<svg width="420" height="320" viewBox="0 0 420 320" fill="none" xmlns="http://www.w3.org/2000/svg">
  <rect width="420" height="320" rx="32" fill="url(#paint0_linear)" />
  <path
    d="M88 220c32 18 86 12 118-8s86-50 142-34c28 8 48 30 64 54V56H88v164Z"
    fill="url(#paint1_linear)"
    opacity="0.3"
  />
  <g filter="url(#filter0_d)">
    <rect x="96" y="88" width="228" height="152" rx="24" fill="white" />
    <path
      d="M132 156c0-22 16-40 40-40h64c24 0 40 18 40 40s-16 40-40 40h-64c-24 0-40-18-40-40Z"
      fill="#E0EEFF"
    />
    <path
      d="M160 156c0-10 6-16 16-16h48c10 0 16 6 16 16s-6 16-16 16h-48c-10 0-16-6-16-16Z"
      fill="#0071CE"
      opacity="0.85"
    />
    <circle cx="168" cy="132" r="12" fill="#FFB600" />
    <path d="M128 116h28v8h-28zm136 88h28v8h-28z" fill="#DCE7F6" />
  </g>
  <defs>
    <filter id="filter0_d" x="76" y="70" width="268" height="192" filterUnits="userSpaceOnUse" color-interpolation-filters="sRGB">
      <feFlood flood-opacity="0" result="BackgroundImageFix" />
      <feColorMatrix in="SourceAlpha" type="matrix" values="0 0 0 0 0 0 0 0 0 0 0 0 0 0 0 0 0 0 127 0" result="hardAlpha" />
      <feOffset dy="8" />
      <feGaussianBlur stdDeviation="10" />
      <feComposite in2="hardAlpha" operator="out" />
      <feColorMatrix type="matrix" values="0 0 0 0 0.05 0 0 0 0 0.15 0 0 0 0 0.35 0 0 0 0.15 0" />
      <feBlend in2="BackgroundImageFix" result="effect1_dropShadow" />
      <feBlend in="SourceGraphic" in2="effect1_dropShadow" result="shape" />
    </filter>
    <linearGradient id="paint0_linear" x1="0" y1="0" x2="420" y2="320" gradientUnits="userSpaceOnUse">
      <stop stop-color="#0F52BA" />
      <stop offset="1" stop-color="#072F6B" />
    </linearGradient>
    <linearGradient id="paint1_linear" x1="88" y1="56" x2="412" y2="274" gradientUnits="userSpaceOnUse">
      <stop stop-color="#9DC9FF" />
      <stop offset="1" stop-color="#002453" />
    </linearGradient>
  </defs>
</svg>
