<svg width="64" height="64" viewBox="0 0 64 64" fill="none" xmlns="http://www.w3.org/2000/svg">
  <rect width="64" height="64" rx="32" fill="#25D366" />
  <path
    d="M32 13C22.0589 13 14 21.0589 14 31C14 34.7703 15.2451 38.2634 17.3794 41.0962L15.5 49L23.6411 46.8696C26.386 48.5042 29.5847 49.5 33 49.5C42.9411 49.5 51 41.4411 51 31.5C51 21.5589 41.9411 13 32 13ZM33.0625 45.0312C30.1394 45.0312 27.4131 44.1934 25.1366 42.7305L24.7388 42.4688L20.6831 43.5312L21.785 39.5541L21.5075 39.1436C19.7609 36.5176 18.9688 33.5684 18.9688 30.4688C18.9688 22.7656 25.3594 16.375 33.0625 16.375C40.7656 16.375 47.1562 22.7656 47.1562 30.4688C47.1562 38.1719 40.7656 45.0312 33.0625 45.0312ZM41.5 36.5938C40.9375 36.2812 38.2188 34.9375 37.625 34.7188C37.0312 34.5 36.5469 34.375 36.0625 34.9688C35.5781 35.5625 34.2812 37.0625 33.8438 37.5938C33.4375 38.0625 33.0312 38.125 32.4688 37.8125C29.4531 36.2969 27.0312 34.1562 25.4062 31.0625C25.1719 30.5625 25.3906 30.1875 25.6719 29.875C26.0156 29.5 26.4688 28.9062 26.7188 28.4688C27 28.0312 26.8594 27.5938 26.6875 27.2812C26.5156 26.9688 25.2188 23.875 24.6875 22.625C24.1719 21.4062 23.625 21.5938 23.0625 21.5625C22.5625 21.5312 21.9688 21.5 21.4375 21.5C20.9062 21.5 20 21.7188 19.4062 22.3438C18.8125 22.9688 17.5 24.2188 17.5 26.7188C17.5 29.2188 19.3438 31.6562 19.625 32C19.9062 32.3438 23.2188 37.0625 28.3125 39.5312C33.4062 42 33.9375 41.9062 34.4688 41.8438C35 41.7812 37.7188 40.3438 38.25 39.75C38.7812 39.1562 39 38.3438 39.1562 37.9688C39.3125 37.5938 39.3125 37.2812 38.9688 36.9688C38.625 36.6562 38.0625 36.2812 37.5 35.9688C36.9375 35.6562 36.5 35.625 36.0625 35.9062C35.625 36.1875 34.5625 37.0312 34.1562 37.3438C33.75 37.6562 33.4688 37.625 33.0625 37.4062C32.6562 37.1875 30.9062 36.5 29.5625 35.0938C28.2188 33.6875 27.6875 32.1875 27.5 31.75C27.3125 31.3125 27.5 31 27.7188 30.7812C27.9375 30.5625 28.2812 30.125 28.5 29.8438C28.7188 29.5625 28.7812 29.3125 28.9375 29.0312C29.0938 28.75 29.0312 28.4688 28.9062 28.1562C28.7812 27.8438 27.875 25.625 27.3125 24.2812C26.7812 22.9688 26.2188 23.0625 25.8125 23.0625C25.4062 23.0625 24.8438 23 24.3125 23C23.7812 23 23 23.1875 22.5 23.7812C22 24.375 20.8438 25.625 20.8438 27.9375C20.8438 30.25 22.4688 32.4688 22.75 32.8438C23.0312 33.2188 25.9375 37.1562 30.3438 39.3438C33.1562 40.75 34.4375 41.125 35 41.3125C35.5625 41.5 36 41.4375 36.3438 41.0625C36.6875 40.6875 37.875 39.3438 38.25 38.875C38.625 38.4062 38.75 37.9688 38.9375 37.5938C39.125 37.2188 39.0625 36.9062 38.6875 36.5938C38.3125 36.2812 37.0625 35.4688 36.5 35.1562Z"
    fill="white"
  />
</svg>
